<?xml version="1.0" standalone="no"?><!DOCTYPE svg PUBLIC "-//W3C//DTD SVG 1.1//EN" "http://www.w3.org/Graphics/SVG/1.1/DTD/svg11.dtd"><svg t="1578030986372" class="icon" viewBox="0 0 1024 1024" version="1.1" xmlns="http://www.w3.org/2000/svg" p-id="1644" xmlns:xlink="http://www.w3.org/1999/xlink" width="200" height="200"><defs><style type="text/css"></style></defs><path d="M344.064 322.56h320.512c24.064 0 43.52-19.456 43.52-43.52s-19.456-43.52-43.52-43.52H344.064c-24.064 0-43.52 19.456-43.52 43.52s19.456 43.52 43.52 43.52zM547.84 443.392c0-24.064-19.456-43.52-43.52-43.52H344.064c-24.064 0-43.52 19.456-43.52 43.52s19.456 43.52 43.52 43.52h160.256c24.064 0 43.52-19.456 43.52-43.52z" fill="#212121" p-id="1645"></path><path d="M948.224 552.448V153.6c0-64-58.88-115.712-131.072-115.712H215.04C142.336 37.888 83.456 89.6 83.456 153.6v398.336h-6.144c-39.936 0-72.192 32.256-72.192 72.192v289.792c0 39.936 32.256 72.192 72.192 72.192h868.864c39.936 0 72.192-32.256 72.192-72.192v-289.792c0.512-38.912-31.232-71.168-70.144-71.68zM170.496 153.6c0-13.824 17.92-29.184 44.032-29.184h602.112c26.112 0 44.032 15.36 44.032 29.184v398.336H624.64l-9.216 31.232c-13.824 45.568-56.32 77.824-103.936 77.824s-90.624-31.744-103.936-77.824l-9.216-31.232H170.496V153.6zM931.84 899.584H92.16v-260.608h244.736C369.664 704 437.248 747.52 512 747.52c74.752 0 142.336-43.52 175.104-108.544H931.84v260.608z" fill="#212121" p-id="1646"></path></svg>